<svg xmlns="http://www.w3.org/2000/svg" width="1920" height="800" viewBox="0 0 1920 800">
  <defs>
    <linearGradient id="grad" x1="0%" y1="0%" x2="100%" y2="100%">
      <stop offset="0%" style="stop-color:#1e3a5f;stop-opacity:1" />
      <stop offset="100%" style="stop-color:#2d6a9f;stop-opacity:1" />
    </linearGradient>
  </defs>
  <rect width="1920" height="800" fill="url(#grad)"/>
  <!-- Buildings silhouette -->
  <rect x="100" y="350" width="120" height="450" fill="#0f2540" opacity="0.4"/>
  <rect x="250" y="250" width="100" height="550" fill="#0f2540" opacity="0.35"/>
  <rect x="380" y="300" width="140" height="500" fill="#0f2540" opacity="0.3"/>
  <rect x="550" y="200" width="110" height="600" fill="#0f2540" opacity="0.4"/>
  <rect x="700" y="350" width="130" height="450" fill="#0f2540" opacity="0.35"/>
  <rect x="860" y="280" width="100" height="520" fill="#0f2540" opacity="0.3"/>
  <rect x="1000" y="220" width="150" height="580" fill="#0f2540" opacity="0.4"/>
  <rect x="1180" y="300" width="120" height="500" fill="#0f2540" opacity="0.35"/>
  <rect x="1330" y="250" width="100" height="550" fill="#0f2540" opacity="0.3"/>
  <rect x="1460" y="320" width="140" height="480" fill="#0f2540" opacity="0.4"/>
  <rect x="1630" y="280" width="110" height="520" fill="#0f2540" opacity="0.35"/>
  <rect x="1770" y="350" width="150" height="450" fill="#0f2540" opacity="0.3"/>
  <!-- Windows -->
  <g fill="#4a90d9" opacity="0.3">
    <rect x="120" y="380" width="15" height="15" rx="1"/>
    <rect x="145" y="380" width="15" height="15" rx="1"/>
    <rect x="170" y="380" width="15" height="15" rx="1"/>
    <rect x="120" y="410" width="15" height="15" rx="1"/>
    <rect x="145" y="410" width="15" height="15" rx="1"/>
    <rect x="170" y="410" width="15" height="15" rx="1"/>
    <rect x="570" y="230" width="15" height="15" rx="1"/>
    <rect x="595" y="230" width="15" height="15" rx="1"/>
    <rect x="620" y="230" width="15" height="15" rx="1"/>
    <rect x="570" y="260" width="15" height="15" rx="1"/>
    <rect x="595" y="260" width="15" height="15" rx="1"/>
    <rect x="620" y="260" width="15" height="15" rx="1"/>
  </g>
</svg>
